<svg width="564.276" height="513.89" xmlns="http://www.w3.org/2000/svg" stroke="#fff" stroke-width="5px" fill="#333">
   <path id="svg_2" d="m127.42681,187.90043c22.737,50.44 15.792,102.75 -15.51,116.87c-31.303,14.12 -75.11,-15.31 -97.845,-65.74c-22.737,-50.43 -15.793,-102.745 15.51,-116.863c31.303,-14.114 75.108,15.317 97.845,65.733z"/>
   <path id="svg_3" d="m436.84881,187.90043c-22.738,50.44 -15.793,102.75 15.512,116.87c31.303,14.12 75.106,-15.31 97.846,-65.74c22.734,-50.43 15.789,-102.745 -15.513,-116.863c-31.301,-14.114 -75.108,15.317 -97.845,65.733z"/>
   <path id="svg_4" d="m260.47941,86.80743c11.6548,54.069 -6.1108,103.763 -39.6787,111.003c-33.5654,7.23 -70.2249,-30.74 -81.8779,-84.804c-11.653,-54.068 6.112,-103.764 39.6792,-110.997c33.5669,-7.236 70.2246,30.729 81.8774,84.798z"/>
   <path id="svg_5" d="m302.96141,86.85343c-11.6446,54.068 6.1084,103.767 39.6738,110.997c33.5676,7.24 70.2256,-30.73 81.8776,-84.797c11.654,-54.069 -6.109,-103.765 -39.678,-110.998c-33.5678,-7.234 -70.225,30.729 -81.8734,84.798z"/>
   <path id="svg_6" d="m218.46631,267.55043c-8.1924,14.15 -46.1563,60.99 -72.4145,76.97c-26.256,15.98 -58.792,39.38 -53.332,93.11c5.457,53.74 60.575,76.74 96.8597,74.7c36.2867,-2.03 104.6993,-8.71 153.543,-1.94c48.8413,6.77 110.4863,1.64 124.9223,-49.81c14.436,-51.45 -17.85,-84.23 -43.044,-102.83c-25.193,-18.59 -67.265,-74.2 -80.2269,-99.73c-12.96,-25.52 -78.9268,-72.26 -126.3076,9.53z"/>
</svg>